<?xml version="1.0" standalone="no"?>
<!DOCTYPE svg PUBLIC "-//W3C//DTD SVG 20010904//EN"
 "http://www.w3.org/TR/2001/REC-SVG-20010904/DTD/svg10.dtd">
<svg version="1.0" xmlns="http://www.w3.org/2000/svg"
 width="215.000000pt" height="290.000000pt" viewBox="0 0 215.000000 290.000000"
 preserveAspectRatio="xMidYMid meet">

<g transform="translate(0.000000,290.000000) scale(0.100000,-0.100000)"
fill="#000000" stroke="none">
<path d="M995 2720 c-12 -20 7 -30 61 -30 47 0 54 2 54 20 0 18 -7 20 -54 20
-30 0 -58 -4 -61 -10z"/>
<path d="M1020 2670 c0 -5 16 -10 35 -10 19 0 35 5 35 10 0 6 -16 10 -35 10
-19 0 -35 -4 -35 -10z"/>
<path d="M993 2638 c-10 -18 12 -28 63 -28 45 0 54 3 54 18 0 14 -9 17 -56 17
-31 0 -58 -3 -61 -7z"/>
<path d="M1020 2590 c0 -5 16 -10 35 -10 19 0 35 5 35 10 0 6 -16 10 -35 10
-19 0 -35 -4 -35 -10z"/>
<path d="M767 2553 c-13 -12 -8 -438 5 -451 19 -19 551 -17 567 2 8 9 11 79 9
232 l-3 219 -286 3 c-157 1 -288 -1 -292 -5z m531 -225 l-3 -193 -234 -3
c-164 -2 -238 1 -247 9 -11 9 -14 50 -14 189 0 97 3 180 7 183 3 4 116 7 250
7 l243 0 -2 -192z"/>
<path d="M922 2434 c-30 -21 -30 -67 1 -87 20 -13 26 -13 50 -1 36 19 37 65 2
88 -30 19 -26 19 -53 0z m48 -30 c11 -12 11 -18 -2 -30 -18 -18 -48 -8 -48 15
0 33 28 42 50 15z"/>
<path d="M1133 2433 c-55 -38 -1 -122 54 -86 31 20 31 66 1 87 -27 19 -27 19
-55 -1z m41 -19 c21 -8 21 -40 0 -48 -21 -8 -34 1 -34 23 0 28 9 34 34 25z"/>
<path d="M930 2240 c0 -23 4 -30 20 -30 16 0 20 6 19 33 l-1 32 -8 -30 -8 -30
-1 28 c-1 37 -21 35 -21 -3z"/>
<path d="M982 2240 c0 -19 2 -27 5 -17 2 9 2 25 0 35 -3 9 -5 1 -5 -18z"/>
<path d="M1002 2240 c0 -19 2 -27 5 -17 2 9 2 25 0 35 -3 9 -5 1 -5 -18z"/>
<path d="M1020 2240 c0 -16 5 -30 10 -30 6 0 10 14 10 30 0 17 -4 30 -10 30
-5 0 -10 -13 -10 -30z"/>
<path d="M1052 2240 c0 -19 2 -27 5 -17 2 9 2 25 0 35 -3 9 -5 1 -5 -18z"/>
<path d="M1070 2240 c0 -23 4 -30 20 -30 16 0 20 7 20 30 0 23 -4 30 -20 30
-16 0 -20 -7 -20 -30z"/>
<path d="M1120 2240 c0 -23 4 -30 20 -30 16 0 20 7 20 30 0 23 -4 30 -20 30
-16 0 -20 -7 -20 -30z"/>
<path d="M1172 2240 c0 -19 2 -27 5 -17 2 9 2 25 0 35 -3 9 -5 1 -5 -18z"/>
<path d="M714 2382 c-13 -8 -34 -46 -34 -61 0 -14 37 -51 50 -51 6 0 10 27 10
60 0 59 -4 67 -26 52z"/>
<path d="M1360 2330 c0 -45 3 -60 14 -60 42 0 62 73 28 103 -33 30 -42 21 -42
-43z"/>
<path d="M890 2045 l0 -25 160 0 160 0 0 25 0 25 -160 0 -160 0 0 -25z"/>
<path d="M657 1993 c-4 -3 -7 -131 -7 -284 0 -237 2 -278 15 -283 22 -8 21
-141 -1 -154 -11 -6 -14 -21 -12 -58 l3 -49 400 0 400 0 3 49 c2 37 -1 52 -12
58 -22 13 -23 143 -1 155 13 8 15 47 13 288 l-3 280 -396 3 c-217 1 -398 -1
-402 -5z m751 -201 l-3 -157 -92 -3 -93 -3 0 159 c0 87 2 161 4 163 2 2 45 3
95 1 l92 -3 -3 -157z m-208 78 c0 -87 -12 -102 -41 -54 l-16 26 -14 -31 c-11
-24 -19 -31 -34 -27 -10 3 -27 -1 -36 -9 -14 -14 -18 -12 -34 20 -18 32 -20
33 -37 18 -17 -15 -20 -15 -41 6 l-24 21 -18 -40 c-10 -22 -21 -40 -24 -40 -4
0 -15 14 -25 31 l-18 31 -16 -23 c-15 -22 -15 -22 -37 21 l-22 44 -12 -37 c-9
-26 -18 -37 -32 -37 -17 0 -19 8 -19 80 l0 80 250 0 250 0 0 -80z m-419 -80
c13 -35 23 -38 43 -9 14 21 15 21 30 -10 21 -39 31 -39 52 2 22 43 21 43 43
23 12 -11 21 -14 26 -7 12 20 34 11 51 -21 17 -32 17 -32 34 -11 12 16 21 18
34 11 13 -7 21 -5 31 9 8 10 15 22 15 27 0 5 8 2 18 -7 10 -10 24 -17 31 -17
8 0 11 -21 9 -72 l-3 -73 -245 0 -245 0 -3 73 c-3 70 -2 72 21 72 16 0 26 7
30 20 7 28 16 25 28 -10z"/>
<path d="M1297 1883 c5 -12 2 -15 -10 -10 -22 8 -23 -26 -1 -47 20 -21 37 -20
57 2 21 23 21 36 1 56 -21 22 -55 21 -47 -1z"/>
<path d="M1282 1758 c-17 -17 -15 -44 4 -62 20 -20 44 -21 44 -1 0 8 7 15 15
15 20 0 19 24 -1 44 -18 19 -45 21 -62 4z"/>
<path d="M516 1879 c-94 -74 -43 -209 75 -197 l34 3 0 105 0 105 -41 3 c-29 2
-47 -3 -68 -19z"/>
<path d="M1484 1887 c-3 -8 -3 -56 -2 -108 l3 -94 29 -3 c71 -8 126 35 126 99
0 50 -15 82 -50 102 -34 20 -99 22 -106 4z"/>
<path d="M1577 1669 c-10 -6 -36 -9 -58 -7 -37 3 -39 2 -39 -24 0 -28 1 -28
60 -28 l60 0 0 35 c0 19 -1 35 -2 35 -2 0 -11 -5 -21 -11z"/>
<path d="M510 1638 c0 -28 1 -28 60 -28 59 0 60 1 60 28 0 26 -1 27 -60 28
-59 0 -60 0 -60 -28z"/>
<path d="M510 1555 l0 -35 60 0 60 0 0 35 0 35 -60 0 -60 0 0 -35z"/>
<path d="M1480 1555 l0 -35 60 0 60 0 0 35 0 35 -60 0 -60 0 0 -35z"/>
<path d="M510 1465 l0 -35 60 0 60 0 0 35 0 35 -60 0 -60 0 0 -35z"/>
<path d="M1480 1465 l0 -35 60 0 60 0 0 35 0 35 -60 0 -60 0 0 -35z"/>
<path d="M472 1348 c2 -47 7 -64 18 -66 11 -2 19 11 28 43 l12 46 42 -3 c41
-3 43 -5 49 -41 7 -44 13 -52 34 -44 11 5 15 22 15 67 l0 60 -100 0 -101 0 3
-62z"/>
<path d="M1442 1348 c3 -55 5 -63 23 -63 16 0 21 8 25 40 5 40 5 40 50 40 44
0 44 0 53 -43 6 -33 13 -42 25 -40 13 3 18 17 20 66 l3 62 -101 0 -101 0 3
-62z"/>
<path d="M760 1098 l0 -38 100 0 100 0 0 35 c0 39 6 37 -137 39 l-63 1 0 -37z"/>
<path d="M1150 1098 l0 -38 101 0 100 0 -3 37 -3 37 -97 1 -98 0 0 -37z"/>
<path d="M760 1005 l0 -35 100 0 100 0 0 35 0 35 -100 0 -100 0 0 -35z"/>
<path d="M1150 1005 l0 -35 100 0 100 0 0 35 0 35 -100 0 -100 0 0 -35z"/>
<path d="M760 910 l0 -41 98 3 97 3 3 38 3 37 -100 0 -101 0 0 -40z"/>
<path d="M1150 910 l0 -40 100 0 100 0 0 40 0 40 -100 0 -100 0 0 -40z"/>
<path d="M700 815 l0 -35 160 0 160 0 0 35 0 35 -160 0 -160 0 0 -35z"/>
<path d="M1090 815 l0 -35 160 0 160 0 0 35 0 35 -160 0 -160 0 0 -35z"/>
<path d="M845 631 c-109 -28 -169 -108 -169 -221 0 -140 87 -224 234 -224 147
0 234 83 234 224 0 95 -39 161 -116 201 -42 22 -138 32 -183 20z m120 -23 c56
-25 90 -139 75 -249 -15 -105 -59 -159 -130 -159 -87 0 -135 74 -134 211 1
135 46 208 131 209 18 0 44 -5 58 -12z"/>
<path d="M1180 580 c1 -51 2 -53 15 -36 8 11 15 23 15 26 0 12 51 30 85 30
l35 0 0 -190 0 -189 -27 -15 c-26 -14 -22 -15 77 -15 83 0 101 2 85 11 -11 6
-23 16 -27 22 -4 6 -8 93 -8 194 l0 182 43 0 c43 0 75 -19 95 -55 10 -17 11
-11 12 35 l0 55 -200 0 -200 0 0 -55z"/>
<path d="M1701 627 c-43 -15 -71 -52 -78 -103 -7 -53 24 -96 112 -156 39 -26
76 -55 82 -65 34 -46 -4 -103 -68 -103 -44 0 -93 36 -114 84 -13 30 -13 30
-14 -34 l-1 -65 99 0 c85 0 104 3 128 21 54 40 69 109 36 166 -10 16 -55 55
-101 85 -107 73 -124 102 -80 143 34 31 83 27 122 -12 18 -18 35 -40 38 -48
11 -31 19 -1 12 46 l-6 49 -67 2 c-36 1 -81 -4 -100 -10z"/>
<path d="M225 618 c11 -6 23 -16 27 -22 4 -6 8 -91 8 -188 l0 -177 -27 -21
-28 -22 160 4 c175 4 210 13 233 63 31 68 1 135 -69 157 l-41 12 36 18 c42 22
56 44 56 92 0 75 -55 96 -245 96 -102 -1 -126 -3 -110 -12z m229 -29 c21 -17
26 -29 26 -65 0 -60 -32 -94 -90 -94 l-40 0 0 90 0 90 39 0 c24 0 48 -8 65
-21z m19 -199 c15 -12 29 -36 33 -55 14 -76 -24 -128 -91 -123 -51 4 -65 29
-65 126 l0 72 49 0 c34 0 56 -6 74 -20z"/>
</g>
</svg>
