<?xml version="1.0" standalone="no"?>
<!DOCTYPE svg PUBLIC "-//W3C//DTD SVG 20010904//EN"
 "http://www.w3.org/TR/2001/REC-SVG-20010904/DTD/svg10.dtd">
<svg version="1.0" xmlns="http://www.w3.org/2000/svg"
 width="233.000000pt" height="258.000000pt" viewBox="0 0 233.000000 258.000000"
 preserveAspectRatio="xMidYMid meet">

<g transform="translate(0.000000,258.000000) scale(0.100000,-0.100000)"
fill="#000000" stroke="none">
<path d="M1038 2465 c-89 -33 -183 -121 -268 -250 -52 -81 -160 -294 -160
-317 0 -7 26 -33 58 -56 59 -43 236 -218 284 -280 17 -24 31 -33 46 -30 20 3
14 13 -55 103 -42 55 -114 137 -161 182 -46 46 -81 87 -78 92 8 12 113 47 206
67 92 20 308 23 400 5 88 -17 218 -59 226 -73 4 -7 -18 -34 -53 -67 -89 -82
-253 -280 -253 -305 0 -3 8 -6 19 -6 11 0 36 23 60 54 51 66 209 220 274 265
26 19 47 42 47 51 0 29 -104 230 -168 326 -138 205 -287 289 -424 239z"/>
<path d="M960 1959 c-36 -6 -69 -14 -75 -20 -12 -12 10 -117 40 -184 28 -64
89 -133 132 -152 115 -47 222 31 278 203 35 105 32 136 -15 146 -57 13 -290
18 -360 7z"/>
<path d="M653 1732 c-150 -119 -250 -290 -349 -594 -43 -132 -41 -152 18 -188
37 -22 133 -56 191 -66 32 -5 37 -4 37 13 0 33 29 63 61 63 28 0 29 2 29 45 0
53 -3 53 -82 21 -32 -13 -58 -20 -58 -16 0 13 50 50 77 56 12 4 23 10 23 14 0
14 -60 33 -123 40 l-62 6 56 8 c33 5 71 4 92 -2 l37 -10 -17 29 c-21 35 -72
71 -128 89 -22 7 -34 15 -28 17 22 8 121 -18 167 -42 l45 -24 3 155 c3 140 5
157 22 170 15 10 53 14 149 14 l129 0 -34 43 c-47 60 -183 197 -196 197 -5 0
-32 -17 -59 -38z"/>
<path d="M1442 1692 c-42 -43 -92 -97 -110 -120 l-34 -42 146 0 c194 0 186 8
186 -179 l0 -139 48 18 c26 10 70 21 97 24 l50 6 -55 -25 c-54 -26 -103 -65
-120 -96 -8 -14 -4 -15 34 -6 29 6 59 6 92 0 l49 -11 -46 -1 c-47 -1 -139 -28
-139 -40 0 -4 15 -12 33 -19 29 -10 91 -62 75 -62 -3 0 -25 9 -49 20 -63 28
-69 26 -69 -20 0 -38 2 -40 29 -40 36 0 61 -23 61 -55 0 -22 2 -22 39 -14 119
27 211 82 211 128 0 25 -67 228 -110 330 -56 137 -144 274 -219 339 -43 39
-103 82 -113 82 -5 0 -44 -35 -86 -78z"/>
<path d="M677 1493 c-4 -3 -7 -125 -7 -270 l0 -263 45 0 c31 0 47 5 51 15 5
12 24 15 84 15 57 0 81 -4 90 -15 19 -22 385 -22 394 0 8 22 164 22 172 0 4
-10 20 -15 50 -15 l44 0 -2 268 -3 267 -456 3 c-250 1 -459 -1 -462 -5z"/>
<path d="M790 945 c0 -24 2 -25 65 -25 63 0 65 1 65 25 0 24 -2 25 -65 25 -63
0 -65 -1 -65 -25z"/>
<path d="M1350 945 c0 -24 2 -25 65 -25 63 0 65 1 65 25 0 24 -2 25 -65 25
-63 0 -65 -1 -65 -25z"/>
<path d="M582 898 l3 -33 552 -3 553 -2 0 35 0 35 -88 0 c-76 0 -89 -2 -100
-20 -10 -17 -23 -20 -88 -20 -67 0 -76 2 -81 20 -5 19 -14 20 -194 20 -178 0
-189 -1 -199 -20 -9 -17 -21 -20 -85 -20 -64 0 -77 3 -87 20 -11 18 -24 20
-101 20 l-88 0 3 -32z"/>
<path d="M1670 557 c-50 -17 -83 -70 -77 -125 6 -52 28 -79 120 -139 92 -61
110 -101 65 -143 -49 -45 -140 -11 -173 64 -13 30 -13 30 -14 -34 l-1 -65 99
0 c85 0 104 3 128 21 40 30 54 62 50 112 -6 53 -34 86 -130 149 -91 61 -107
93 -65 133 43 40 110 20 149 -44 l19 -31 0 55 0 55 -68 2 c-37 1 -83 -4 -102
-10z"/>
<path d="M223 540 l27 -22 0 -178 0 -178 -27 -21 -28 -20 137 -1 c168 0 228
12 275 53 94 82 97 235 7 319 -55 52 -96 62 -264 65 l-155 4 28 -21z m256 -15
c75 -38 114 -141 93 -242 -20 -98 -69 -143 -154 -143 -74 0 -78 11 -78 222 l0
178 55 0 c31 0 69 -7 84 -15z"/>
<path d="M755 548 c11 -6 23 -16 27 -22 4 -6 8 -91 8 -188 l0 -177 -26 -20
-27 -21 167 0 166 0 0 48 c-1 46 -1 46 -15 22 -19 -36 -54 -52 -105 -48 -56 4
-70 27 -70 121 l0 67 54 0 c56 0 86 -16 86 -46 0 -8 5 -14 10 -14 6 0 10 30
10 70 0 40 -4 70 -10 70 -5 0 -10 -6 -10 -14 0 -29 -30 -46 -81 -46 l-49 0 0
43 c0 23 -3 66 -6 95 l-7 52 64 0 c73 0 80 -4 102 -45 l16 -30 1 48 0 47 -162
0 c-127 -1 -159 -3 -143 -12z"/>
<path d="M1121 545 c31 -17 38 -30 123 -248 36 -93 69 -174 72 -179 9 -15 15
-3 84 183 78 208 87 227 119 244 24 13 22 14 -49 15 -70 0 -73 -1 -52 -16 12
-8 22 -26 22 -38 0 -25 -66 -216 -79 -229 -8 -8 -101 215 -101 240 0 7 10 19
22 27 21 15 15 16 -82 16 -97 -1 -103 -2 -79 -15z"/>
<path d="M1960 200 c-11 -11 -20 -27 -20 -35 0 -21 36 -55 58 -55 24 0 52 31
52 57 0 23 -30 53 -53 53 -9 0 -26 -9 -37 -20z"/>
</g>
</svg>
