<?xml version="1.0" standalone="no"?>
<!DOCTYPE svg PUBLIC "-//W3C//DTD SVG 20010904//EN"
 "http://www.w3.org/TR/2001/REC-SVG-20010904/DTD/svg10.dtd">
<svg version="1.0" xmlns="http://www.w3.org/2000/svg"
 width="310.000000pt" height="293.000000pt" viewBox="0 0 310.000000 293.000000"
 preserveAspectRatio="xMidYMid meet">

<g transform="translate(0.000000,293.000000) scale(0.100000,-0.100000)"
fill="#000000" stroke="none">
<path d="M1100 2490 c-11 -11 -20 -29 -20 -40 0 -11 9 -29 20 -40 18 -18 20
-33 20 -135 l0 -115 -40 0 c-73 0 -110 -33 -110 -100 l0 -30 135 0 c122 0 137
2 155 20 41 41 122 17 135 -39 7 -33 -15 -85 -40 -95 -32 -12 -71 -6 -93 14
-19 18 -35 20 -157 20 l-135 0 0 -45 0 -45 68 0 c56 0 72 4 87 20 20 22 73 27
105 10 25 -13 41 -65 30 -94 -20 -53 -89 -72 -128 -36 -17 16 -35 20 -92 20
l-70 0 0 -55 0 -55 -113 0 c-101 0 -116 2 -132 20 -25 28 -71 26 -90 -4 -22
-33 -10 -71 26 -86 26 -11 33 -10 67 13 39 28 28 27 225 18 14 -1 17 -11 17
-66 l0 -65 -113 0 c-100 0 -114 2 -130 20 -24 28 -72 26 -92 -4 -22 -33 -10
-71 26 -86 26 -11 33 -10 67 14 35 24 46 26 140 26 l102 0 0 -70 0 -70 -113 0
c-100 0 -114 2 -130 20 -24 29 -72 26 -93 -5 -19 -29 -11 -60 21 -81 28 -18
60 -11 75 17 10 17 22 19 125 19 l115 0 0 -49 c0 -70 27 -100 98 -108 l52 -6
0 -112 c0 -99 -2 -114 -20 -130 -39 -36 -13 -95 43 -95 53 0 76 60 37 95 -18
16 -20 31 -20 132 l0 113 55 0 55 0 0 58 c0 68 -19 93 -71 97 -39 3 -67 30
-75 72 -5 27 -1 37 24 63 19 18 41 30 57 30 35 0 85 -50 85 -85 0 -16 13 -42
30 -62 27 -30 30 -40 30 -103 l0 -70 45 0 45 0 0 61 c0 58 -2 63 -45 111 l-45
50 0 79 c0 67 -4 83 -26 116 -30 44 -26 76 12 111 28 24 51 27 87 11 47 -21
60 -80 27 -122 -15 -19 -20 -40 -20 -92 0 -65 1 -68 45 -117 l45 -50 0 -79 0
-79 55 0 55 0 0 -113 c0 -101 -2 -116 -20 -132 -42 -38 -13 -99 43 -93 22 2
36 11 46 30 14 25 14 29 -7 57 -20 27 -22 42 -22 141 l0 110 65 0 65 0 0 -113
c0 -100 -2 -114 -20 -130 -22 -19 -26 -48 -10 -78 22 -40 110 -14 110 34 0 8
-11 29 -25 45 -23 27 -25 38 -25 123 0 52 4 99 8 105 4 6 29 14 57 17 60 6 95
40 95 93 l0 34 -101 0 c-86 0 -105 -3 -126 -20 -34 -27 -74 -25 -107 5 -36 33
-35 78 3 116 16 16 37 29 46 29 22 0 75 -28 75 -40 0 -6 44 -10 105 -10 l105
0 0 44 0 44 -133 4 c-130 3 -135 4 -177 33 -28 20 -52 29 -71 27 -22 -3 -37 5
-60 28 -26 26 -30 36 -25 63 9 44 35 67 80 69 44 2 75 -24 80 -66 2 -16 15
-36 36 -51 32 -23 42 -25 151 -25 l118 0 3 58 3 57 105 1 c96 0 107 -1 134
-23 36 -30 63 -27 90 10 19 26 19 30 5 55 -19 35 -67 42 -94 12 -16 -18 -30
-20 -132 -20 l-113 0 0 65 0 65 111 0 c96 0 114 -3 136 -20 14 -11 34 -20 44
-20 23 0 59 38 59 62 0 25 -36 58 -63 58 -13 0 -32 -9 -42 -20 -16 -18 -31
-20 -132 -20 l-113 0 0 65 0 65 111 0 c96 0 114 -3 136 -20 14 -11 34 -20 44
-20 25 0 59 35 59 60 0 27 -35 60 -63 60 -13 0 -32 -9 -42 -20 -16 -18 -31
-20 -132 -20 l-113 0 0 46 c0 60 -40 104 -94 104 l-36 0 0 -158 0 -159 -29
-40 c-16 -23 -27 -43 -24 -47 10 -9 -7 -56 -27 -76 -21 -21 -70 -26 -99 -10
-10 5 -24 23 -31 40 -22 53 14 110 70 110 12 0 30 10 41 23 16 19 18 40 19
170 l0 147 -45 0 -45 0 0 -88 c0 -78 -3 -92 -25 -122 -14 -19 -25 -45 -25 -58
0 -83 -83 -120 -141 -63 -33 33 -35 50 -14 90 15 29 33 41 64 41 10 0 27 10
39 23 19 20 22 35 22 100 l0 77 -55 0 -55 0 0 115 c0 102 2 117 20 135 11 11
20 29 20 40 0 11 -9 29 -20 40 -11 11 -29 20 -40 20 -11 0 -29 -9 -40 -20 -11
-11 -20 -29 -20 -40 0 -11 9 -29 20 -40 18 -18 20 -33 20 -135 l0 -115 -65 0
-65 0 0 115 c0 102 2 117 20 135 11 11 20 29 20 40 0 11 -9 29 -20 40 -11 11
-29 20 -40 20 -11 0 -29 -9 -40 -20 -11 -11 -20 -29 -20 -40 0 -11 9 -29 20
-40 18 -18 20 -33 20 -135 l0 -115 -65 0 -65 0 0 111 c0 96 3 114 20 136 26
34 25 68 -2 87 -30 21 -54 20 -78 -4z m65 -40 c0 -8 -10 -16 -22 -18 -18 -3
-23 2 -23 18 0 16 5 21 23 18 12 -2 22 -10 22 -18z m165 0 c0 -13 -7 -20 -20
-20 -13 0 -20 7 -20 20 0 13 7 20 20 20 13 0 20 -7 20 -20z m170 0 c0 -13 -7
-20 -20 -20 -13 0 -20 7 -20 20 0 13 7 20 20 20 13 0 20 -7 20 -20z m800 -461
c0 -12 -7 -19 -19 -19 -26 0 -36 17 -21 35 15 18 40 8 40 -16z m-2 -167 c3
-16 -2 -22 -17 -22 -26 0 -36 17 -20 36 16 19 33 13 37 -14z m-1601 -153 c16
-16 5 -39 -18 -39 -12 0 -19 7 -19 18 0 31 17 41 37 21z m1601 -12 c4 -21 -25
-34 -40 -19 -8 8 -8 16 2 27 16 19 34 15 38 -8z m-1595 -183 c-8 -20 -37 -13
-41 10 -3 11 0 16 7 12 6 -4 11 -2 11 5 0 9 3 9 14 -1 8 -6 12 -18 9 -26z m-3
-149 c13 -16 6 -35 -15 -35 -18 0 -28 17 -21 35 7 19 20 19 36 0z m457 -456
c14 -14 6 -39 -12 -39 -18 0 -28 17 -21 35 6 18 18 19 33 4z m511 -12 c4 -22
-27 -35 -38 -16 -10 15 7 42 24 36 6 -2 12 -11 14 -20z m170 0 c4 -22 -27 -35
-38 -16 -10 15 7 42 24 36 6 -2 12 -11 14 -20z"/>
<path d="M1612 2494 c-29 -20 -30 -69 -2 -86 19 -12 20 -24 20 -211 0 -188 -1
-199 -22 -227 -15 -20 -30 -30 -48 -30 -60 0 -81 -80 -29 -109 24 -13 29 -13
53 2 19 13 26 26 26 49 0 19 11 45 28 67 l27 36 3 203 c3 185 5 205 23 223 24
24 24 54 -1 79 -24 24 -48 25 -78 4z m58 -44 c0 -13 -7 -20 -20 -20 -13 0 -20
7 -20 20 0 13 7 20 20 20 13 0 20 -7 20 -20z m-90 -566 c0 -19 -28 -30 -42
-16 -8 8 -8 15 1 26 14 17 41 10 41 -10z"/>
<path d="M1782 2494 c-28 -19 -29 -65 -2 -89 19 -17 20 -31 20 -283 0 -251 -1
-265 -21 -293 -14 -20 -29 -29 -49 -29 -33 0 -72 -42 -63 -68 11 -30 36 -52
59 -52 29 0 66 46 58 72 -3 12 4 32 21 54 l27 35 -1 268 -2 267 26 28 c30 33
32 59 5 86 -24 24 -48 25 -78 4z m58 -44 c0 -13 -7 -20 -19 -20 -22 0 -35 15
-26 30 12 19 45 11 45 -10z m-94 -719 c-9 -14 -33 -14 -41 -1 -4 6 -1 18 6 26
11 13 14 13 27 0 8 -8 11 -19 8 -25z"/>
<path d="M639 2029 c-15 -15 -19 -28 -14 -47 12 -52 55 -66 98 -32 24 19 40
20 280 20 243 0 255 -1 272 -20 25 -27 63 -22 88 11 16 23 17 30 7 50 -7 13
-18 27 -24 31 -21 14 -56 8 -73 -12 -17 -19 -30 -20 -274 -20 -243 0 -257 1
-274 20 -23 26 -60 25 -86 -1z m61 -24 c15 -18 5 -35 -21 -35 -12 0 -19 7 -19
18 0 33 20 42 40 17z m638 -14 c-2 -9 -11 -17 -21 -19 -21 -4 -35 27 -17 38
19 12 42 0 38 -19z"/>
<path d="M639 1859 c-15 -15 -19 -28 -14 -47 12 -51 55 -66 96 -33 21 15 50
19 208 24 l184 6 29 -24 c34 -29 46 -31 76 -9 43 30 17 104 -36 104 -12 0 -31
-9 -42 -20 -19 -19 -33 -20 -208 -20 -176 0 -190 1 -207 20 -23 26 -60 25 -86
-1z m61 -24 c15 -18 5 -35 -21 -35 -12 0 -19 7 -19 18 0 33 20 42 40 17z m500
0 c15 -18 5 -35 -21 -35 -12 0 -19 7 -19 18 0 33 20 42 40 17z"/>
<path d="M1352 1654 c-28 -20 -29 -68 -2 -91 17 -15 20 -30 20 -102 l0 -84 45
-48 45 -48 0 -184 c0 -171 -1 -185 -20 -202 -40 -36 -15 -95 39 -95 54 0 80
60 41 95 -19 17 -20 31 -20 199 0 154 -3 185 -17 206 -9 14 -20 28 -25 31 -4
3 -19 20 -33 39 -21 29 -25 45 -25 106 0 59 3 74 19 85 33 24 35 56 7 84 -29
29 -43 31 -74 9z m53 -49 c0 -11 -7 -21 -16 -23 -18 -3 -33 23 -23 39 10 17
39 5 39 -16z m92 -741 c9 -23 -13 -40 -32 -24 -12 10 -13 16 -4 26 15 18 28
18 36 -2z"/>
<path d="M1562 1628 c-7 -7 -12 -27 -12 -44 0 -39 32 -66 66 -58 16 4 37 -4
70 -28 l46 -33 237 0 c236 0 236 0 269 -25 31 -23 35 -23 59 -10 41 24 51 46
33 78 -20 36 -71 42 -97 13 -17 -20 -28 -21 -254 -21 l-236 0 -41 30 c-33 24
-42 37 -42 60 0 43 -67 69 -98 38z m66 -41 c4 -20 -25 -34 -40 -19 -15 15 -1
44 19 40 10 -2 19 -11 21 -21z m670 -100 c4 -21 -25 -34 -40 -19 -8 8 -8 16 2
27 16 19 34 15 38 -8z"/>
<path d="M1180 1427 c-18 -9 -26 -22 -28 -47 -4 -39 16 -60 57 -60 14 0 38
-12 53 -27 l28 -27 0 -176 c0 -166 -1 -178 -20 -195 -27 -25 -22 -63 11 -88
23 -16 30 -17 50 -7 44 24 53 65 19 95 -19 17 -20 31 -20 197 l0 178 -34 37
c-22 25 -34 48 -34 67 0 19 -8 37 -22 48 -26 21 -28 21 -60 5z m48 -50 c4 -20
-25 -34 -40 -19 -15 15 -1 44 19 40 10 -2 19 -11 21 -21z m101 -511 c9 -10 8
-16 -4 -26 -21 -17 -51 6 -34 26 6 8 15 14 19 14 4 0 13 -6 19 -14z"/>
<path d="M1667 1352 c-25 -27 -21 -58 10 -81 30 -24 60 -20 82 10 13 18 29 19
235 19 205 0 222 -1 233 -19 24 -38 84 -31 104 13 27 58 -57 105 -98 56 -16
-19 -30 -20 -239 -20 -208 0 -222 1 -239 20 -23 25 -67 26 -88 2z m60 -23 c14
-14 6 -39 -12 -39 -18 0 -28 17 -21 35 6 18 18 19 33 4z m571 -12 c4 -21 -25
-34 -40 -19 -8 8 -8 16 2 27 16 19 34 15 38 -8z"/>
<path d="M204 621 c-2 -2 -4 -26 -4 -53 l0 -49 34 35 c28 30 40 36 75 36 l41
0 0 -184 0 -184 -27 -21 -28 -20 105 -1 105 0 -28 23 -28 22 3 180 3 180 38 3
c43 4 82 -17 92 -48 3 -11 11 -20 16 -20 11 0 12 80 1 95 -7 10 -389 15 -398
6z"/>
<path d="M2210 610 c-106 -18 -179 -76 -205 -163 -19 -63 -19 -81 0 -143 17
-57 70 -115 128 -139 46 -19 168 -21 226 -4 l41 12 0 64 c0 50 4 67 20 83 11
11 20 22 20 25 0 3 -40 5 -90 5 -92 0 -106 -5 -70 -28 16 -10 20 -23 20 -72 0
-54 -2 -62 -24 -71 -62 -29 -145 22 -166 102 -17 61 -8 177 17 225 32 63 129
97 167 59 8 -9 18 -16 21 -15 3 0 9 0 15 0 5 0 22 -18 36 -40 15 -22 28 -39
30 -38 6 7 12 116 7 122 -3 3 -12 1 -20 -5 -14 -12 -98 5 -109 22 -3 5 -8 8
-12 8 -4 -1 -27 -5 -52 -9z"/>
<path d="M650 602 c0 -5 11 -14 25 -20 l25 -12 0 -172 c0 -95 -4 -178 -8 -184
-4 -6 -18 -17 -32 -25 -24 -13 -22 -14 40 -19 36 -3 85 -3 110 1 45 5 45 6 18
17 -28 11 -28 13 -28 102 l0 90 103 0 102 0 -3 -89 c-3 -82 -5 -89 -28 -101
-13 -8 -22 -15 -19 -18 10 -10 193 -14 199 -4 3 6 -3 13 -14 17 -33 10 -37 33
-35 165 4 235 2 219 30 230 14 5 25 14 25 20 0 13 -197 13 -205 0 -3 -5 1 -10
9 -10 30 0 47 -44 45 -113 l-2 -65 -104 -1 -103 -2 0 81 c0 76 1 81 25 92 46
21 26 28 -75 28 -55 0 -100 -4 -100 -8z"/>
<path d="M1230 601 c0 -5 9 -13 20 -16 11 -3 23 -17 26 -29 10 -42 0 -349 -12
-353 -6 -2 -20 -10 -30 -18 -17 -13 -7 -14 91 -14 l110 0 -27 20 -28 21 0 173
c0 144 3 176 16 189 8 9 22 16 30 16 8 0 14 5 14 10 0 6 -42 10 -105 10 -58 0
-105 -4 -105 -9z"/>
<path d="M2560 592 c-36 -20 -70 -73 -70 -109 0 -49 33 -93 109 -145 86 -58
101 -73 101 -103 0 -46 -70 -74 -125 -50 -32 13 -65 53 -65 80 0 8 -4 15 -10
15 -6 0 -10 -27 -10 -62 l0 -63 96 -3 c81 -2 100 0 128 17 38 24 56 58 56 108
0 54 -32 95 -119 153 -44 28 -82 58 -85 67 -26 66 45 107 115 66 16 -10 29
-20 29 -23 0 -3 9 -16 20 -30 l20 -25 0 60 0 60 -78 2 c-59 2 -86 -2 -112 -15z"/>
<path d="M1470 590 c0 -5 6 -10 13 -10 8 0 21 -8 30 -18 14 -16 17 -44 17
-181 l0 -163 -31 -29 -31 -29 77 0 c48 0 74 4 70 10 -3 5 -12 10 -19 10 -31 0
-37 27 -34 176 l3 148 154 -177 c84 -97 157 -177 162 -177 5 0 9 88 9 195 0
182 1 196 20 215 11 11 25 20 30 20 6 0 10 5 10 10 0 6 -30 10 -70 10 -38 0
-70 -2 -70 -5 0 -2 11 -15 25 -29 24 -24 25 -31 25 -142 0 -92 -3 -114 -13
-106 -7 6 -64 71 -127 146 l-115 135 -67 1 c-39 0 -68 -4 -68 -10z"/>
</g>
</svg>
